<?xml version="1.0" encoding="UTF-8"?>
<svg version="1.1" xmlns="http://www.w3.org/2000/svg" width="1024" height="1024">
<path d="M0 0 C0 0.66 0 1.32 0 2 C0.5971582 1.98259766 1.19431641 1.96519531 1.80957031 1.94726562 C47.26012244 1.20708602 97.94932114 23.09950393 135 48 C135.96824707 48.63687744 135.96824707 48.63687744 136.95605469 49.28662109 C151.06296612 58.56639892 164.05050591 69.05206235 176.38671875 80.5703125 C178.65725606 82.68133523 180.96279436 84.72826474 183.3125 86.75 C202.79421532 103.69587221 219.01228671 125.70456225 231.85253906 148.01074219 C232.624154 149.34842698 233.40227511 150.68237777 234.18652344 152.01269531 C258.3865985 193.10017166 270.37547582 239.52779351 272 287 C272.04302246 288.04365723 272.04302246 288.04365723 272.08691406 289.10839844 C274.85590799 362.32901012 244.08712868 434.00991331 196 488 C195.51031738 488.55284668 195.02063477 489.10569336 194.51611328 489.67529297 C172.84380496 514.03431013 146.74843403 534.04789262 118.22900391 549.76806641 C116.13542657 550.92515198 114.05759756 552.10669855 111.98046875 553.29296875 C85.2240047 568.30551096 53.96924946 579.06118093 23.58935547 583.61035156 C21.85398786 583.87149117 20.12110701 584.1496898 18.39111328 584.44433594 C-13.37058038 589.78678034 -49.30258782 589.7317985 -81 584 C-82.1348584 583.80132324 -83.2697168 583.60264648 -84.43896484 583.39794922 C-140.11066573 573.41517948 -190.5132239 549.32325774 -233 512 C-233.5978833 511.48751709 -234.1957666 510.97503418 -234.81176758 510.44702148 C-247.1713751 499.79725926 -258.90150206 488.20673296 -268.6640625 475.11328125 C-270.84654198 472.20452516 -273.1383292 469.45106917 -275.5 466.6875 C-307.23942248 428.03341763 -325.85487142 376.06526044 -332 327 C-332.09498779 326.25830566 -332.18997559 325.51661133 -332.2878418 324.75244141 C-340.70897286 247.77009091 -316.89164717 172.36429981 -269.12670898 112.01489258 C-255.64210725 95.30202123 -240.0948919 78.99107228 -223 66 C-222.09507812 65.26652344 -221.19015625 64.53304687 -220.2578125 63.77734375 C-179.69224166 31.37756963 -131.01136078 11.51223011 -80 3 C-79.00935547 2.83338867 -78.01871094 2.66677734 -76.99804688 2.49511719 C-51.59822418 -1.52194711 -25.62391508 -0.28967802 0 0 Z " fill="#FE6885" transform="translate(543,200)"/>
<path d="M0 0 C0.64609443 -0.00623996 1.29218885 -0.01247993 1.9578619 -0.01890898 C4.10908636 -0.0347831 6.25916882 -0.02225818 8.41040039 -0.00964355 C9.95818744 -0.01506721 11.50596932 -0.02219125 13.05374146 -0.03088379 C17.24799933 -0.04909128 21.44186286 -0.04206039 25.63612747 -0.02936745 C30.02956438 -0.01922638 34.42296798 -0.0286362 38.81640625 -0.03491211 C46.19382782 -0.0421853 53.57108911 -0.03260947 60.94848633 -0.0135498 C69.4725895 0.00821836 77.99630996 0.00116675 86.52040386 -0.02085543 C93.84458277 -0.03901882 101.1686466 -0.04156317 108.49284077 -0.03110075 C112.86482833 -0.02487097 117.23663611 -0.02401596 121.60861206 -0.0372467 C125.71933749 -0.04881832 129.82957043 -0.04075589 133.94024277 -0.01766968 C135.44707294 -0.01238954 136.95394469 -0.01388452 138.46075821 -0.02272034 C140.52143228 -0.03368807 142.58053853 -0.01990098 144.64111328 0 C146.36884727 0.00226215 146.36884727 0.00226215 148.13148499 0.00457001 C152.65965073 0.71929781 155.91089044 2.78909876 158.81665039 6.33215332 C161.49862836 11.64046657 161.8329338 15.74544641 160.32055664 21.50793457 C158.70405234 25.54919532 156.42528458 27.56958633 152.61683464 29.66381073 C147.69424937 31.4733789 142.40183077 31.02266913 137.22509766 30.96203613 C135.26309669 30.96291229 135.26309669 30.96291229 133.26145935 30.96380615 C129.69151718 30.96494948 126.12211731 30.94150292 122.55230069 30.91351032 C118.81540791 30.88843248 115.07850143 30.88614966 111.34153748 30.88140869 C104.27262418 30.86899757 97.2039596 30.83620147 90.13515562 30.79601073 C82.08439569 30.75123475 74.03362362 30.72929138 65.98277009 30.70922899 C49.42855356 30.66746696 32.87458689 30.59715151 16.32055664 30.50793457 C16.32424381 31.58799774 16.32793098 32.66806091 16.33172989 33.78085327 C16.420533 60.0626654 16.486262 86.34445807 16.52780533 112.62638855 C16.54842942 125.33614433 16.57654728 138.045801 16.62231445 150.75549316 C16.66218668 161.83342047 16.68799056 172.911276 16.69691062 183.98927307 C16.70212466 189.85485724 16.71437674 195.72023605 16.74347687 201.58575439 C16.77065183 207.10803552 16.77899731 212.63002691 16.77298737 218.15236855 C16.77408666 220.17762133 16.78202798 222.20288393 16.79737854 224.22807884 C16.81733887 226.99758055 16.81247372 229.76599453 16.80157471 232.53552246 C16.81322607 233.33320982 16.82487744 234.13089718 16.83688188 234.95275688 C16.7779381 240.51042529 15.50903766 244.89919513 12.32055664 249.50793457 C7.12259748 253.64508574 2.96249226 255.16123971 -3.67944336 254.50793457 C-9.2093856 252.11437748 -12.86949326 248.90303876 -15.67944336 243.50793457 C-16.9743751 238.84926902 -16.82764329 234.17652461 -16.82661438 229.38066101 C-16.83029107 228.45915058 -16.83396776 227.53764015 -16.83775586 226.58820516 C-16.84877237 223.49918678 -16.85263306 220.41020206 -16.85644531 217.32116699 C-16.86271137 215.10683587 -16.86935829 212.8925058 -16.87635803 210.67817688 C-16.89737933 203.40659312 -16.90775682 196.13500918 -16.91772461 188.86340332 C-16.92177252 186.35957643 -16.92588945 183.85574965 -16.93007469 181.35192299 C-16.94693863 170.9384694 -16.96157457 160.52501737 -16.96882343 150.11155224 C-16.97073319 147.41189256 -16.97265355 144.71223289 -16.97460938 142.01257324 C-16.97509312 141.34162029 -16.97557686 140.67066735 -16.97607525 139.97938249 C-16.98437714 129.10835472 -17.00971979 118.23743693 -17.04219005 107.36645719 C-17.07527849 96.19722205 -17.09294101 85.02802671 -17.09646767 73.85873872 C-17.09881926 67.59082808 -17.10779452 61.32309148 -17.13292885 55.05522728 C-17.15619019 49.15941832 -17.16045043 43.26389828 -17.15016747 37.36805534 C-17.14967157 35.2057372 -17.15600772 33.04340492 -17.16972351 30.88113022 C-17.18741937 27.92579362 -17.18034728 24.97149652 -17.16719055 22.01615906 C-17.1781598 21.16351807 -17.18912904 20.31087709 -17.20043069 19.4323985 C-17.1389988 13.70441872 -16.09464228 9.19728124 -12.67944336 4.50793457 C-8.49148454 0.85857199 -5.49240418 0.0071913 0 0 Z " fill="#010000" transform="translate(551.679443359375,425.4920654296875)"/>
<path d="M0 0 C0.96786 -0.00935994 0.96786 -0.00935994 1.95527273 -0.01890898 C4.10960071 -0.03481812 6.26279388 -0.02224429 8.41712952 -0.00964355 C9.96476907 -0.01506571 11.51240345 -0.0221889 13.06002808 -0.03088379 C17.25847693 -0.04911072 21.45653237 -0.04205195 25.65498805 -0.02936745 C30.05110017 -0.01923465 34.44717878 -0.02863407 38.84329224 -0.03491211 C46.22669008 -0.04218847 53.60992786 -0.03260194 60.99330139 -0.0135498 C69.52476812 0.00821091 78.05585235 0.00117344 86.58730978 -0.02085543 C93.91571476 -0.03901939 101.24400472 -0.04156265 108.57242495 -0.03110075 C112.94778082 -0.02487024 117.32295704 -0.02401779 121.69830132 -0.0372467 C125.81311718 -0.04881886 129.92744107 -0.04075489 134.0422039 -0.01766968 C135.55064579 -0.01238948 137.05912922 -0.01388462 138.56755447 -0.02272034 C140.63047099 -0.03368803 142.69182137 -0.0199009 144.75463867 0 C146.48432089 0.00226215 146.48432089 0.00226215 148.24894619 0.00457001 C152.86463332 0.73247465 155.89436947 2.38572274 158.68589872 6.21659231 C161.63862754 11.44249132 162.01014475 16.16534921 161.94874573 22.07189941 C161.95498569 23.00414022 161.96122565 23.93638103 161.96765471 24.89687157 C161.98354336 28.00446632 161.97099642 31.11127221 161.95838928 34.21887207 C161.96381222 36.45335343 161.97093584 38.68783122 161.97962952 40.92230225 C161.99784518 46.9801131 161.9908024 53.03765107 161.97811317 59.09546661 C161.96797652 65.43918079 161.97738071 71.78287181 161.98365784 78.12658691 C161.99139805 89.46120703 161.97897805 100.79568877 161.95862049 112.13028121 C161.94075058 122.3975031 161.94385504 132.66454407 161.96229553 142.9317627 C161.98372419 154.86822827 161.99165767 166.80458403 161.97984648 178.74107552 C161.97361474 185.05474312 161.97276729 191.36828622 161.98599243 197.6819458 C161.99755847 203.61805356 161.98951093 209.5538201 161.96641541 215.48989105 C161.96113241 217.66670923 161.96263504 219.84355618 161.97146606 222.02036285 C161.982421 224.9952844 161.96865793 227.96911726 161.94874573 230.94396973 C161.95766861 231.80234625 161.9665915 232.66072277 161.97578478 233.5451107 C161.90103413 239.31540688 160.65766995 243.67403894 157.44081116 248.50793457 C153.88415627 251.97339318 150.44301425 254.30048868 145.40565491 254.64855957 C139.58148944 254.44875973 136.34971336 252.42034604 132.06971741 248.58996582 C128.11517331 243.5353567 128.15573825 237.93074765 128.20030212 231.81399536 C128.19859327 230.95132282 128.19688442 230.08865027 128.19512379 229.19983613 C128.19183599 226.31628509 128.20282093 223.432968 128.21376038 220.54943848 C128.21432464 218.47961431 128.21400763 216.40978975 128.21287537 214.33996582 C128.21230146 208.72476264 128.22406201 203.10964487 128.23802328 197.49446154 C128.25052424 191.62480127 128.25170064 185.75513905 128.2540741 179.88546753 C128.26029072 168.77211792 128.27670404 157.65880765 128.29677308 146.54547536 C128.31912637 133.89261993 128.33012408 121.23976263 128.34016395 108.58689237 C128.36107008 82.56055129 128.39624965 56.53424513 128.44081116 30.50793457 C127.4132071 30.51346533 127.4132071 30.51346533 126.36484337 30.51910782 C109.68906163 30.60747786 93.01335414 30.67365334 76.33739281 30.71518326 C68.27298443 30.73580109 60.20873244 30.76390664 52.14442444 30.80969238 C45.11486793 30.84958419 38.08542468 30.87537306 31.05575812 30.88428855 C27.33417782 30.88949939 23.61292153 30.90173006 19.89144516 30.9308548 C15.735066 30.96311874 11.57924875 30.96389249 7.42274475 30.96203613 C6.19131744 30.97641724 4.95989014 30.99079834 3.69114685 31.00561523 C-2.67950109 30.97477203 -6.76038493 30.88690914 -11.55918884 26.50793457 C-15.31011241 22.23964223 -15.9121732 18.31273015 -15.84043884 12.78918457 C-15.2724952 8.18253054 -12.55800945 5.46279031 -9.3246069 2.37171173 C-5.94137609 0.09155438 -4.05393821 0.00530365 0 0 Z " fill="#020001" transform="translate(327.55918884277344,425.4920654296875)"/>
<path d="M0 0 C0.65177261 -0.00551417 1.30354522 -0.01102833 1.97506851 -0.0167096 C4.15654463 -0.03029261 6.33687885 -0.01541553 8.51833344 -0.00063419 C10.09903924 -0.00452752 11.67974155 -0.01016822 13.26043558 -0.01740509 C17.60222314 -0.03217327 21.94364852 -0.02197048 26.28542447 -0.00766838 C30.96852234 0.0034298 35.65156892 -0.00849736 40.33466339 -0.01751041 C49.50809429 -0.03145275 58.68138766 -0.02387935 67.85481203 -0.00883483 C78.53459349 0.00801429 89.21434059 0.00481639 99.89413124 0.00107109 C118.9478889 -0.00480932 138.00158049 0.00937116 157.05532074 0.03401852 C175.54981208 0.0579398 194.04421515 0.065023 212.53871918 0.05452633 C232.67145629 0.04312037 252.80415256 0.04118309 272.93688917 0.05562443 C275.08315245 0.05715029 277.22941573 0.05867064 279.37567902 0.06018543 C280.43171905 0.06094325 281.48775908 0.06170106 282.57580033 0.06248184 C290.0225373 0.06722715 297.46925605 0.06537147 304.91599274 0.06112003 C313.98940301 0.05619641 323.06272978 0.06216419 332.13612092 0.08201433 C336.76670535 0.09189476 341.39716258 0.09698334 346.02775383 0.08912182 C350.26539378 0.08207455 354.50277682 0.08884723 358.74038285 0.10672545 C360.27461553 0.11077615 361.80887156 0.10975966 363.3430956 0.10320658 C365.4270515 0.09506624 367.51013963 0.10535545 369.59403992 0.12025452 C370.75197225 0.12128365 371.90990458 0.12231278 373.10292578 0.12337309 C378.05282772 0.70791875 381.28344371 2.37741919 384.60951996 6.06307125 C387.89886497 10.81434738 387.76891831 14.82905214 387.29701996 20.50057125 C385.91663811 24.56502891 383.8840277 27.72739851 380.5026952 30.44047928 C375.23277154 32.97331079 368.73820295 32.17239776 362.99304962 32.12203121 C361.40337941 32.12636066 359.8137139 32.13287706 358.2240606 32.14139128 C353.85746294 32.15839665 349.491438 32.14419209 345.12487042 32.1248765 C340.41520215 32.10946192 335.70560462 32.12284812 330.99593353 32.13262081 C321.77066848 32.14715607 312.54562331 32.13490479 303.32037907 32.11350757 C292.58137337 32.08951224 281.84241821 32.09121102 271.10339165 32.09381348 C251.94531384 32.09750469 232.78733972 32.07666867 213.62929535 32.04256344 C195.0309614 32.0094668 176.43273628 31.99530581 157.83437347 32.00154781 C137.58994092 32.00830884 117.34555398 32.00586013 97.10112816 31.98618841 C96.03104989 31.98514893 94.96097162 31.98410944 93.85846673 31.98303846 C91.70916039 31.98094753 89.55985407 31.97883656 87.41054777 31.97670528 C79.92126433 31.96980432 72.43199493 31.96914126 64.94270897 31.97058773 C55.81912588 31.97202608 46.69563164 31.96236134 37.57207804 31.93864137 C32.91529266 31.92676555 28.25863126 31.91966675 23.60183144 31.92547894 C19.34141649 31.93063936 15.0812638 31.92200306 10.82089377 31.90220433 C9.27726002 31.89745291 7.73360082 31.89777936 6.18997078 31.9036147 C4.09572878 31.91076828 2.00236249 31.89956229 -0.09181309 31.8836813 C-1.25620067 31.8821101 -2.42058825 31.88053889 -3.6202603 31.87892008 C-8.70791858 31.25450083 -12.56680607 28.52358047 -15.74985504 24.5044775 C-17.8489986 20.0911142 -17.39763324 15.22680986 -16.70298004 10.50057125 C-13.34424482 3.26637232 -7.87233294 0.00072974 0 0 Z " fill="#000000" transform="translate(326.7029800415039,351.4994287490845)"/>
<path d="M0 0 C31.62303255 -0.14742876 63.24595786 -0.26420807 94.86927581 -0.32788104 C97.7032209 -0.33365721 100.53716584 -0.33950516 103.37111068 -0.3454029 C104.07220951 -0.34684922 104.77330834 -0.34829554 105.49565259 -0.34978569 C116.14733154 -0.37221902 126.79886436 -0.41149052 137.45045638 -0.4594776 C149.74083757 -0.51482992 162.03103369 -0.54831294 174.32154489 -0.55554146 C180.70927446 -0.5599119 187.09659423 -0.57428567 193.48420882 -0.61422843 C199.40923134 -0.65094354 205.33362164 -0.65960015 211.25873685 -0.64634138 C213.41729056 -0.64641855 215.57587256 -0.6567111 217.73431993 -0.67813808 C237.34118343 -0.86251467 237.34118343 -0.86251467 243.6190927 4.38414937 C247.36125542 8.51674646 250.33104979 12.32073035 250.69056869 18.05056268 C250.25571499 24.0327392 247.59907314 29.03905367 243.12806869 32.98806268 C238.57266293 36.11990414 235.17937369 36.17423256 229.70127654 36.15799314 C229.05507916 36.15745861 228.40888179 36.15692408 227.74310267 36.15637335 C225.56895656 36.15333533 223.39490449 36.14306458 221.22078109 36.13285333 C219.64990568 36.12915996 218.07902918 36.12591058 216.50815201 36.12306809 C212.18456994 36.1139547 207.86102969 36.09852309 203.5374701 36.08208531 C198.87765644 36.06546713 194.21782893 36.05467219 189.55800033 36.04317743 C181.48222067 36.02245578 173.40645901 35.99802767 165.33069777 35.97109681 C153.65443811 35.93216444 141.97816779 35.89879911 130.3018873 35.86680155 C111.35884396 35.81473864 92.41581689 35.75816049 73.47279525 35.69875604 C55.06915586 35.64105271 36.66551209 35.58546768 18.26185775 35.53274041 C17.12785032 35.5294907 15.9938429 35.52624098 14.82547161 35.52289278 C9.13660717 35.50660333 3.44774261 35.49035562 -2.24112201 35.47412866 C-49.45141184 35.33941169 -96.66167764 35.1973725 -143.87193131 35.05056268 C-143.87193131 34.72056268 -143.87193131 34.39056268 -143.87193131 34.05056268 C-142.65972423 34.05023663 -142.65972423 34.05023663 -141.42302811 34.04990399 C-93.54947878 34.03639457 -45.67601093 33.99694502 2.19748623 33.92370706 C7.94290146 33.91494008 13.68831699 33.90639031 19.43373275 33.89797479 C21.14948014 33.8954562 21.14948014 33.8954562 22.8998891 33.89288672 C41.43213835 33.86620098 59.96435668 33.85712051 78.49662317 33.85452125 C97.50576409 33.85146417 116.51481542 33.82954586 135.52391589 33.79003811 C147.25803779 33.76624728 158.99198101 33.75725149 170.72612374 33.76704957 C178.76751469 33.77235632 186.80874519 33.75937876 194.85009046 33.73189978 C199.49286075 33.71657825 204.13527207 33.70943657 208.77805305 33.72396547 C213.02719651 33.73708491 217.27564321 33.72728658 221.5247079 33.69912495 C223.06315248 33.69299802 224.60165854 33.6953401 226.14007165 33.70693342 C235.09394021 34.12532178 235.09394021 34.12532178 242.9959867 30.64732915 C247.00132918 25.7690275 247.58838578 21.69638072 247.44056869 15.48806268 C246.96602635 11.78663244 245.64231807 9.76330543 243.12806869 7.05056268 C238.71843804 4.40192144 235.47714388 3.67643963 230.36147666 3.68141919 C229.70284135 3.67795766 229.04420604 3.67449613 228.36561209 3.6709297 C226.1610068 3.66299575 223.95706028 3.67644117 221.75248885 3.68979913 C220.15513602 3.68849069 218.55778381 3.68586356 216.96043503 3.68203163 C212.57290113 3.67532227 208.18558684 3.68732553 203.79808092 3.70236582 C199.06603591 3.7153154 194.33400338 3.71093748 189.60194564 3.70865899 C181.4039546 3.70708558 173.20603516 3.71650193 165.00806212 3.73337251 C153.15516533 3.75774867 141.30230317 3.76556637 129.44938402 3.76933648 C110.21904964 3.77590314 90.98875343 3.79587012 71.75843978 3.82424432 C53.07745214 3.85177935 34.39647486 3.87301566 15.71547103 3.88576776 C13.9883651 3.88695001 13.9883651 3.88695001 12.22636814 3.88815615 C6.45014051 3.89207125 0.67391281 3.89586238 -5.10231495 3.89959186 C-53.02554678 3.93069443 -100.94873719 3.98353607 -148.87193131 4.05056268 C-145.01083568 0.18946704 -140.36414552 0.8800983 -135.2420485 0.84524041 C-134.33589421 0.83536064 -133.42973992 0.82548087 -132.49612641 0.81530172 C-129.38704712 0.78310158 -126.27795671 0.75847747 -123.16880631 0.73415643 C-120.8676978 0.71303367 -118.56659108 0.69171532 -116.265486 0.6702221 C-108.38436632 0.5996681 -100.50317306 0.5426883 -92.62193131 0.48806268 C-91.24274532 0.47836245 -89.86355932 0.46866167 -88.48437333 0.45896035 C-65.88350352 0.30130723 -43.28244055 0.19169805 -20.68124294 0.09365046 C-13.7874892 0.06367515 -6.89374355 0.03223038 0 0 Z " fill="#EC7D78" transform="translate(465.8719313144684,348.9494373202324)"/>
<path d="M0 0 C0.57234375 0.22042969 1.1446875 0.44085937 1.734375 0.66796875 C-29.04986414 19.95539131 -64.64842586 33.88340983 -100.67626953 39.27832031 C-102.41163714 39.53945992 -104.14451799 39.81765855 -105.87451172 40.11230469 C-137.63620538 45.45474909 -173.56821282 45.39976725 -205.265625 39.66796875 C-206.4004834 39.46929199 -207.5353418 39.27061523 -208.70458984 39.06591797 C-255.20609145 30.7275023 -255.20609145 30.7275023 -262.265625 23.66796875 C-257.96294533 24.28817483 -254.01664707 25.30927867 -249.890625 26.66796875 C-244.95791849 28.22744985 -240.41483737 29.26410896 -235.265625 29.66796875 C-235.265625 30.32796875 -235.265625 30.98796875 -235.265625 31.66796875 C-234.2034375 31.78140625 -233.14125 31.89484375 -232.046875 32.01171875 C-225.11443873 32.87827328 -218.30113856 34.4357618 -211.46484375 35.8515625 C-201.45912438 37.8962621 -191.49621878 38.97007079 -181.3359375 39.91796875 C-180.48257813 40.00046875 -179.62921875 40.08296875 -178.75 40.16796875 C-177.98397461 40.24015625 -177.21794922 40.31234375 -176.42871094 40.38671875 C-174.31327557 40.6617731 -172.32206483 41.10744001 -170.265625 41.66796875 C-170.265625 41.00796875 -170.265625 40.34796875 -170.265625 39.66796875 C-169.74629395 39.83022949 -169.22696289 39.99249023 -168.69189453 40.15966797 C-165.57126007 40.81343743 -162.63437147 40.79781862 -159.4453125 40.80078125 C-158.78661163 40.80173798 -158.12791077 40.8026947 -157.44924927 40.80368042 C-156.05568344 40.80435958 -154.6621144 40.80252374 -153.26855469 40.79833984 C-151.16854445 40.79303922 -149.06875316 40.79826698 -146.96875 40.8046875 C-139.67135244 40.80837128 -132.5099364 40.56040923 -125.265625 39.66796875 C-122.51226628 39.42109225 -119.75837572 39.18328596 -117.00390625 38.94921875 C-110.15138182 38.24539313 -103.40497555 37.00470565 -96.640625 35.73046875 C-95.7125 35.56095703 -94.784375 35.39144531 -93.828125 35.21679688 C-89.40821473 34.38410604 -85.41064388 33.45998819 -81.265625 31.66796875 C-79.37510984 31.43980313 -77.48408396 31.21436739 -75.58984375 31.01953125 C-71.86164496 30.45560202 -68.29543462 29.35376595 -64.68359375 28.2890625 C-62.265625 27.66796875 -62.265625 27.66796875 -59.265625 27.66796875 C-59.265625 27.00796875 -59.265625 26.34796875 -59.265625 25.66796875 C-56.52345126 24.72985668 -53.78731204 23.81138787 -50.9921875 23.04296875 C-45.50942619 21.52094037 -40.68623046 19.50062114 -35.6484375 16.86328125 C-33.46411322 15.76753825 -31.31170496 14.87235124 -29.015625 14.04296875 C-25.59249163 12.78781985 -22.49461571 11.34973474 -19.265625 9.66796875 C-18.66105469 9.38179687 -18.05648437 9.095625 -17.43359375 8.80078125 C-12.70241663 6.54250736 -8.55421462 3.86974485 -4.34375 0.7421875 C-2.265625 -0.33203125 -2.265625 -0.33203125 0 0 Z " fill="#F93C8E" transform="translate(667.265625,744.33203125)"/>
<path d="M0 0 C0.33 0 0.66 0 1 0 C1.07476562 0.56847656 1.14953125 1.13695312 1.2265625 1.72265625 C2.25531201 7.7640382 4.17425179 12.06750541 9 16 C12.95837972 17.92947233 16.16864433 18.25305169 20.54983997 18.26171303 C21.52086681 18.26770712 21.52086681 18.26770712 22.51151034 18.27382231 C24.68359838 18.28480288 26.85543193 18.28159446 29.02754211 18.2784729 C30.59928446 18.28347541 32.17102423 18.28935107 33.74276036 18.29602563 C38.06407482 18.31184512 42.38532429 18.31525739 46.7066642 18.31667423 C51.36580711 18.32036487 56.02491422 18.33551867 60.68403625 18.34928894 C68.75705402 18.37157615 76.83005908 18.38658065 84.90310097 18.39665604 C96.57539853 18.4112339 108.24765183 18.43676822 119.91992345 18.46498732 C138.85684155 18.51047154 157.79376602 18.54707962 176.73071289 18.578125 C195.12753416 18.60830386 213.52433985 18.64265109 231.92114258 18.68261719 C233.05488728 18.68507874 234.18863198 18.68754028 235.35673258 18.69007643 C241.04432664 18.7024509 246.73192051 18.71490746 252.4195143 18.72740483 C299.61298778 18.83099704 346.80648071 18.92019224 394 19 C394 19.33 394 19.66 394 20 C345.47166337 20.1144173 296.94334035 20.20253463 248.41489539 20.25532665 C242.68707847 20.26158026 236.95926183 20.26805187 231.23144531 20.2746582 C229.52097077 20.27662553 229.52097077 20.27662553 227.77594119 20.2786326 C209.30643835 20.30039556 190.83701323 20.33982203 172.36755651 20.38576398 C153.4194748 20.43250378 134.47143383 20.46029017 115.52329683 20.47044247 C103.82905989 20.47730675 92.13504265 20.49899536 80.44087332 20.53958233 C72.42427467 20.56599008 64.40778978 20.57400543 56.39115077 20.56750689 C51.76430014 20.56430095 47.13783369 20.56925263 42.51105118 20.59602737 C38.27419346 20.6203667 34.03797813 20.62158337 29.80109078 20.60449447 C28.26931711 20.60238257 26.73750328 20.60871979 25.20580858 20.62441591 C11.42529849 20.75740803 11.42529849 20.75740803 5.45047617 16.45102948 C1.68426888 12.6833855 -0.20700389 8.31001949 -0.25 3 C-0.1675 2.01 -0.085 1.02 0 0 Z " fill="#FDB1AA" transform="translate(308,365)"/>
<path d="M0 0 C-1.39176632 0.96423026 -2.7886223 1.92111602 -4.1875 2.875 C-4.96480469 3.40867188 -5.74210937 3.94234375 -6.54296875 4.4921875 C-8.97279395 5.9833044 -11.33868751 6.99589879 -14 8 C-18.84985179 10.69436211 -23.39798381 13.9075104 -28 17 C-34 21 -34 21 -36.9375 22.875 C-39.99400544 24.99584051 -42.66599072 27.30128794 -45.38671875 29.828125 C-47 31 -47 31 -50 31 C-50 31.66 -50 32.32 -50 33 C-50.66 33 -51.32 33 -52 33 C-52.2475 33.598125 -52.495 34.19625 -52.75 34.8125 C-54.19733581 37.34533766 -55.6355028 38.31715965 -58 40 C-62.68231582 43.4070131 -66.99850139 46.78220416 -71 51 C-72.66666667 52.66666667 -74.33333333 54.33333333 -76 56 C-77.299375 57.36125 -77.299375 57.36125 -78.625 58.75 C-81 61 -81 61 -84 62 C-84.69126109 63.32074991 -85.35302497 64.65700129 -86 66 C-87.39327987 67.68343245 -88.83578263 69.32676122 -90.3125 70.9375 C-91.51712891 72.25814453 -91.51712891 72.25814453 -92.74609375 73.60546875 C-94.40577712 75.36870256 -96.12514063 77.07622148 -97.875 78.75 C-100.15315738 80.94505902 -100.15315738 80.94505902 -101.5 84 C-103.90504704 88.81009408 -107.65142069 91.93988864 -112 95 C-104.746923 79.07314021 -89.59751644 65.41477047 -77.4375 53.1875 C-76.95480652 52.69953949 -76.47211304 52.21157898 -75.97479248 51.70883179 C-69.33218868 45.0102692 -62.40404116 38.84989279 -55 33 C-53.96278595 32.15457214 -52.92615882 31.30842258 -51.890625 30.4609375 C-38.68005463 20.0253686 -24.33403954 10.88910974 -9.75 2.5 C-9.10119873 2.12029053 -8.45239746 1.74058105 -7.78393555 1.34936523 C-3.3631173 -1.1210391 -3.3631173 -1.1210391 0 0 Z " fill="#FC9267" transform="translate(375,233)"/>
<path d="M0 0 C0.33 0 0.66 0 1 0 C1.31368185 7.61919492 0.42306376 14.66039582 -1.0625 22.125 C-1.39423218 23.81375244 -1.39423218 23.81375244 -1.73266602 25.53662109 C-10.21878945 67.15031441 -27.93285948 107.38710828 -54 141 C-54.33 140.34 -54.66 139.68 -55 139 C-52.82535272 133.94568281 -49.75604919 129.01508706 -46 125 C-45.34 125 -44.68 125 -44 125 C-44 124.01 -44 123.02 -44 122 C-43.34 122 -42.68 122 -42 122 C-41.7525 121.13375 -41.505 120.2675 -41.25 119.375 C-39.92401005 115.79482713 -38.12691035 113.15813961 -36 110 C-35.43245287 108.74051185 -34.89031402 107.46924553 -34.375 106.1875 C-33 103 -33 103 -31 102 C-30.09274566 99.88672575 -30.09274566 99.88672575 -29.375 97.4375 C-29.11460937 96.61121094 -28.85421875 95.78492188 -28.5859375 94.93359375 C-28.39257812 94.29550781 -28.19921875 93.65742187 -28 93 C-27.34 93 -26.68 93 -26 93 C-25.22678118 90.01758453 -24.58803797 87.02419525 -24 84 C-23.34 84 -22.68 84 -22 84 C-21.34 81.03 -20.68 78.06 -20 75 C-19.34 75 -18.68 75 -18 75 C-17.9071875 73.63875 -17.9071875 73.63875 -17.8125 72.25 C-17.31648133 68.69379084 -16.11637549 65.75402752 -14.66796875 62.4765625 C-12.11823892 56.45830593 -10.18102 50.43591842 -8.5 44.125 C-8.20665771 43.03525879 -7.91331543 41.94551758 -7.61108398 40.82275391 C-4.13484743 27.38938651 -2.03756033 13.71242357 0 0 Z " fill="#F94C85" transform="translate(811,525)"/>
<path d="M0 0 C0.33 0 0.66 0 1 0 C1 1.98 1 3.96 1 6 C1.99 6.33 2.98 6.66 4 7 C3.67 8.98 3.34 10.96 3 13 C3.66 13.33 4.32 13.66 5 14 C4.67 14.66 4.34 15.32 4 16 C4.24680201 18.56740432 4.24680201 18.56740432 5 21 C5.66 21.33 6.32 21.66 7 22 C6.95875 23.03125 6.9175 24.0625 6.875 25.125 C7.02037537 29.63163633 8.17138723 32.93621213 9.8359375 37.08203125 C10.60384862 39.03703433 11.30612848 41.01750994 12 43 C11.67 43.66 11.34 44.32 11 45 C11.66 45.33 12.32 45.66 13 46 C13.144375 46.886875 13.28875 47.77375 13.4375 48.6875 C13.84143319 52.06610942 13.84143319 52.06610942 15.5625 55.0625 C17.02737394 58.05593804 17.28857572 59.72947521 17 63 C17.66 63.33 18.32 63.66 19 64 C19 65.65 19 67.3 19 69 C19.66 69 20.32 69 21 69 C21.12375 69.804375 21.2475 70.60875 21.375 71.4375 C21.58125 72.283125 21.7875 73.12875 22 74 C22.66 74.33 23.32 74.66 24 75 C24 76.66666667 24 78.33333333 24 80 C24.66 80.33 25.32 80.66 26 81 C26.625 84.0625 26.625 84.0625 27 87 C22.86361457 84.93180729 21.59107903 78.58678679 19.875 74.5 C19.13902588 72.74768066 19.13902588 72.74768066 18.38818359 70.95996094 C10.62451863 52.13174443 5.0929169 32.92959362 1 13 C0.79375 12.06285156 0.5875 11.12570312 0.375 10.16015625 C-0.21696207 6.75020808 -0.05857032 3.45564912 0 0 Z " fill="#FA5088" transform="translate(213,533)"/>
<path d="M0 0 C3.60920754 4.25168428 5.82974854 8.32352681 5.41796875 13.98828125 C4.01255032 20.75267834 0.60755867 25.14480342 -5 29 C-7.375 29.8125 -7.375 29.8125 -9 30 C-9 29.34 -9 28.68 -9 28 C-7.63875 27.4121875 -7.63875 27.4121875 -6.25 26.8125 C-1.85233823 24.35995786 0.40902453 21.77292642 2 17 C2.52124721 12.03533399 2.53000847 8.12117176 0.375 3.5625 C-3.23442585 -0.33188052 -6.84891723 -2.10551204 -12.13427734 -2.41650391 C-13.70124761 -2.45090811 -15.26860264 -2.4701657 -16.8359375 -2.4765625 C-18.09321152 -2.49993179 -18.09321152 -2.49993179 -19.37588501 -2.52377319 C-22.04224716 -2.57106176 -24.70835329 -2.59895099 -27.375 -2.625 C-30.03431949 -2.66170692 -32.69350115 -2.70256446 -35.35269165 -2.74765015 C-37.00216585 -2.7744826 -38.65173857 -2.79599862 -40.30136108 -2.81118774 C-45.27581869 -2.8782829 -50.07324703 -3.30098581 -55 -4 C-55 -4.33 -55 -4.66 -55 -5 C-48.82559884 -5.19262883 -42.65100961 -5.37129392 -36.47583008 -5.53710938 C-34.37578538 -5.59545746 -32.2758425 -5.6575998 -30.17602539 -5.72363281 C-27.15529926 -5.81796351 -24.13446821 -5.89857999 -21.11328125 -5.9765625 C-20.17664139 -6.00875885 -19.24000153 -6.0409552 -18.27497864 -6.0741272 C-10.77847835 -6.24586135 -5.98481635 -4.73797961 0 0 Z " fill="#F9948B" transform="translate(711,355)"/>
<path d="M0 0 C0 0.66 0 1.32 0 2 C-1.794375 2.1546875 -1.794375 2.1546875 -3.625 2.3125 C-6.59513994 2.67204326 -8.25720635 3.12860317 -11 4.5 C-14.19494971 6.09747485 -16.53681933 6.42743717 -20.03125 6.75 C-22.83027038 7.10543116 -25.36769904 8.01288714 -28 9 C-28.66 8.34 -29.32 7.68 -30 7 C-26.60511062 6.01754027 -23.20893071 5.03961667 -19.8125 4.0625 C-18.85279297 3.78470703 -17.89308594 3.50691406 -16.90429688 3.22070312 C-15.97294922 2.95322266 -15.04160156 2.68574219 -14.08203125 2.41015625 C-13.22843018 2.16402588 -12.3748291 1.91789551 -11.49536133 1.66430664 C-7.52580075 0.60754367 -4.13173846 0 0 0 Z M-30 8 C-30 8.66 -30 9.32 -30 10 C-30.88042969 10.25394531 -31.76085937 10.50789062 -32.66796875 10.76953125 C-33.82941406 11.11371094 -34.99085938 11.45789063 -36.1875 11.8125 C-37.33605469 12.14894531 -38.48460937 12.48539063 -39.66796875 12.83203125 C-42.78642215 13.92513508 -45.20777281 15.26705367 -48 17 C-49.44034584 17.54967262 -50.899677 18.05260963 -52.375 18.5 C-56.37035589 19.7700469 -60.16540239 21.2957344 -64 23 C-65.31169891 23.56436554 -66.62418459 24.12690645 -67.9375 24.6875 C-69.4534375 25.3371875 -69.4534375 25.3371875 -71 26 C-71.33 25.34 -71.66 24.68 -72 24 C-62.55951139 19.29227623 -53.04314086 15.10897845 -43.125 11.5 C-42.16835449 11.15001953 -41.21170898 10.80003906 -40.22607422 10.43945312 C-33.39486922 8 -33.39486922 8 -30 8 Z " fill="#FD9F5E" transform="translate(447,207)"/>
<path d="M0 0 C2.42317335 0.01005735 4.84635078 0.01917829 7.26953125 0.02734375 C13.1381115 0.04912155 19.006536 0.08237755 24.875 0.125 C24.875 0.785 24.875 1.445 24.875 2.125 C27.185 2.125 29.495 2.125 31.875 2.125 C30.555 3.115 29.235 4.105 27.875 5.125 C27.37355469 4.79628906 26.87210938 4.46757812 26.35546875 4.12890625 C22.9686202 2.75816597 19.77405076 2.94988708 16.1875 3.0625 C13.7450922 3.1241885 11.31926181 3.14563912 8.875 3.125 C8.38 2.63 8.38 2.63 7.875 2.125 C5.8613724 2.02496038 3.84423513 1.99418931 1.828125 1.9921875 C0.590625 1.99089844 -0.646875 1.98960937 -1.921875 1.98828125 C-3.87867188 1.99408203 -3.87867188 1.99408203 -5.875 2 C-7.1640625 1.99613281 -8.453125 1.99226562 -9.78125 1.98828125 C-11.64523437 1.99021484 -11.64523437 1.99021484 -13.546875 1.9921875 C-15.25762207 1.99387939 -15.25762207 1.99387939 -17.00292969 1.99560547 C-19.83881885 2.11313919 -22.36000317 2.52824022 -25.125 3.125 C-28.41176187 3.15347442 -31.68347294 3.06079226 -34.96875 2.96484375 C-38.14468924 3.12599908 -40.27361374 3.76846363 -43.125 5.125 C-43.785 4.135 -44.445 3.145 -45.125 2.125 C-30.07110649 -0.06004394 -15.18792723 -0.11070831 0 0 Z " fill="#FEA05A" transform="translate(518.125,199.875)"/>
<path d="M0 0 C0.66 0.99 1.32 1.98 2 3 C1.01 3.495 1.01 3.495 0 4 C-0.82453758 5.32215323 -1.58648688 6.68378453 -2.3125 8.0625 C-4.38262781 11.91404342 -6.60136614 15.60843021 -8.984375 19.2734375 C-10.16164908 21.13755725 -10.16164908 21.13755725 -11 24 C-11.99 24 -12.98 24 -14 24 C-14.0825 24.70125 -14.165 25.4025 -14.25 26.125 C-15.17212197 29.65980087 -16.9660466 31.97988738 -19 35 C-20.24324147 38.2249208 -20.24324147 38.2249208 -21 41 C-21.66 41 -22.32 41 -23 41 C-23.17015625 41.66386719 -23.3403125 42.32773437 -23.515625 43.01171875 C-24.93131569 48.16995346 -26.1901501 52.05877597 -30 56 C-29.08197054 50.67122176 -27.00874329 46.28697925 -24.6875 41.4375 C-24.24817139 40.51799561 -23.80884277 39.59849121 -23.35620117 38.65112305 C-16.76956122 25.14015538 -9.0059299 12.0501879 0 0 Z " fill="#FB7F6D" transform="translate(262,328)"/>
<path d="M0 0 C0.66 0 1.32 0 2 0 C-1.82857191 8.61929802 -9.5870058 15.76460167 -15.87890625 22.65625 C-17.81831503 24.79924312 -19.69329299 26.98344638 -21.5625 29.1875 C-25.0375255 33.1927524 -28.92778908 36.61530521 -33 40 C-33.66 39.34 -34.32 38.68 -35 38 C-34.48050781 37.55269531 -33.96101562 37.10539063 -33.42578125 36.64453125 C-24.4021801 28.82185299 -16.61854762 20.18132661 -9 11 C-7.19056243 8.93771526 -5.37425097 6.8819185 -3.55078125 4.83203125 C-1.83365371 2.87419268 -1.83365371 2.87419268 0 0 Z " fill="#FB438C" transform="translate(754,666)"/>
<path d="M0 0 C3.72433382 1.2125738 7.37802806 2.50859979 11 4 C11 4.66 11 5.32 11 6 C11.70382812 6.26941406 12.40765625 6.53882813 13.1328125 6.81640625 C16.13174889 8.0543868 18.98554691 9.46275316 21.875 10.9375 C25.1367874 12.58434376 28.37707301 14.21831847 31.75 15.625 C35.5964876 17.25236014 39.27786588 19.10628264 43 21 C39.17590212 22.27469929 38.33109682 21.50552114 34.765625 19.7890625 C33.72269287 19.28995361 32.67976074 18.79084473 31.60522461 18.27661133 C30.49800049 17.73157959 29.39077637 17.18654785 28.25 16.625 C27.12795166 16.07932373 26.00590332 15.53364746 24.84985352 14.97143555 C16.31441317 10.76851274 7.86197915 6.3819402 0 1 C0 0.67 0 0.34 0 0 Z " fill="#FA3E8F" transform="translate(352,742)"/>
<path d="M0 0 C0.66 0.33 1.32 0.66 2 1 C-3.90291583 7.32455267 -10.52053975 12.5034185 -17.36865234 17.74902344 C-18.78919807 18.83834943 -20.20194029 19.93783682 -21.61328125 21.0390625 C-26.74748223 25 -26.74748223 25 -29 25 C-28.505 23.515 -28.505 23.515 -28 22 C-27.01 22 -26.02 22 -25 22 C-24.67 21.01 -24.34 20.02 -24 19 C-22.59941084 18.03292653 -21.19193264 17.07379629 -19.74609375 16.17578125 C-17.82188454 14.88006095 -16.16163908 13.42559336 -14.4375 11.875 C-11.74048819 9.48826388 -9.34466949 8.33786779 -6 7 C-4.65589738 4.98264795 -4.65589738 4.98264795 -4 3 C-3.34 3 -2.68 3 -2 3 C-2 2.34 -2 1.68 -2 1 C-1.34 0.67 -0.68 0.34 0 0 Z " fill="#FB3F8E" transform="translate(718,706)"/>
<path d="M0 0 C0.33 0 0.66 0 1 0 C1.33 14.52 1.66 29.04 2 44 C2.66 44 3.32 44 4 44 C3.67 47.3 3.34 50.6 3 54 C2.67 54 2.34 54 2 54 C0.13043112 41.92684266 -0.24840756 30.1963921 -0.125 18 C-0.11493498 16.24219269 -0.10581545 14.48437969 -0.09765625 12.7265625 C-0.07595647 8.48423075 -0.04162768 4.24218106 0 0 Z " fill="#F8567D" transform="translate(210,478)"/>
<path d="M0 0 C0.99 0.33 1.98 0.66 3 1 C3 1.66 3 2.32 3 3 C3.66 3 4.32 3 5 3 C5 3.66 5 4.32 5 5 C5.53625 5.226875 6.0725 5.45375 6.625 5.6875 C9.82460161 7.45570089 12.29037223 9.53670203 15 12 C15 12.66 15 13.32 15 14 C15.5775 14.268125 16.155 14.53625 16.75 14.8125 C19.05550043 16.02929189 21.02056192 17.30333879 23 19 C23 19.66 23 20.32 23 21 C18.98161026 19.3142365 15.89338315 16.55900211 12.625 13.75 C12.07328125 13.28464844 11.5215625 12.81929687 10.953125 12.33984375 C7.11051574 9.06550769 3.44963438 5.68933707 0 2 C0 1.34 0 0.68 0 0 Z " fill="#FA418D" transform="translate(298,699)"/>
<path d="M0 0 C3.69909473 0.60541175 6.71354402 1.65257655 10.08203125 3.28515625 C11.01337891 3.73310547 11.94472656 4.18105469 12.90429688 4.64257812 C13.86400391 5.11115234 14.82371094 5.57972656 15.8125 6.0625 C16.79154297 6.53494141 17.77058594 7.00738281 18.77929688 7.49414062 C21.18870167 8.65770684 23.59544007 9.82646296 26 11 C25.34 11.66 24.68 12.32 24 13 C23.01 12.67 22.02 12.34 21 12 C21 11.34 21 10.68 21 10 C20.01 10.33 19.02 10.66 18 11 C16.0546875 9.890625 16.0546875 9.890625 13.875 8.25 C9.45500148 5.12914718 5.19957716 3.40130448 0 2 C0 1.34 0 0.68 0 0 Z " fill="#FD9B61" transform="translate(628,223)"/>
<path d="M0 0 C4.42278984 2.77161497 8.14552041 5.83515861 11.8125 9.5625 C12.30169922 10.04396484 12.79089844 10.52542969 13.29492188 11.02148438 C15.59813288 13.33743791 16.9523236 14.8569708 18 18 C14.46348004 16.53037948 12.56750263 14.60575114 10.125 11.6875 C7.7229092 8.88955903 5.39262903 6.35192677 2.5 4.0625 C1.675 3.381875 0.85 2.70125 0 2 C0 1.34 0 0.68 0 0 Z " fill="#FA8C69" transform="translate(720,282)"/>
<path d="M0 0 C0.66 0 1.32 0 2 0 C0.81389749 5.49920253 -0.50257628 8.32028968 -5 12 C-9.87876655 15.144094 -13.37280524 15.2910618 -19 15 C-19 14.67 -19 14.34 -19 14 C-18.41992188 13.90203125 -17.83984375 13.8040625 -17.2421875 13.703125 C-12.02988543 12.70539061 -8.07331132 11.59967047 -4 8 C-2.41748164 5.42655892 -1.15142181 2.79050462 0 0 Z " fill="#F564B8" transform="translate(488,666)"/>
<path d="M0 0 C1.65 0 3.3 0 5 0 C5.33 0.99 5.66 1.98 6 3 C8.15213351 4.50726403 8.15213351 4.50726403 10.75 5.875 C14.83748763 8.21739979 17.89334869 10.47912851 21 14 C16.90973251 12.53865213 13.54123903 10.53964183 9.9375 8.125 C8.91527344 7.44695313 7.89304687 6.76890625 6.83984375 6.0703125 C4.28744986 4.20955767 2.152267 2.30194504 0 0 Z " fill="#FA3F8F" transform="translate(331,728)"/>
<path d="M0 0 C4.10110762 1.40398279 6.98089159 3.37087038 10.3125 6.125 C11.19550781 6.84945313 12.07851563 7.57390625 12.98828125 8.3203125 C13.65214844 8.87460937 14.31601562 9.42890625 15 10 C14.34 10.66 13.68 11.32 13 12 C11 10.625 11 10.625 9 9 C9 8.34 9 7.68 9 7 C8.071875 6.7834375 8.071875 6.7834375 7.125 6.5625 C5 6 5 6 3 5 C3 4.34 3 3.68 3 3 C2.01 2.67 1.02 2.34 0 2 C0 1.34 0 0.68 0 0 Z " fill="#FC9667" transform="translate(685,254)"/>
<path d="M0 0 C0.99 0.33 1.98 0.66 3 1 C-9.48306998 10.30022573 -9.48306998 10.30022573 -15 13 C-15.66 12.67 -16.32 12.34 -17 12 C-16.01 11.67 -15.02 11.34 -14 11 C-14 10.34 -14 9.68 -14 9 C-12.96875 8.4225 -11.9375 7.845 -10.875 7.25 C-5.10211034 4.08032234 -5.10211034 4.08032234 0 0 Z " fill="#FB3D8D" transform="translate(686,731)"/>
<path d="M0 0 C0.66 0 1.32 0 2 0 C3.47516321 1.65808345 4.880713 3.37846047 6.25 5.125 C9.63649626 9.36495897 13.06669363 13.26840165 17 17 C16.67 17.66 16.34 18.32 16 19 C3.47261765 6.67007201 3.47261765 6.67007201 0 2 C0 1.34 0 0.68 0 0 Z " fill="#FA438A" transform="translate(278,678)"/>
<path d="M0 0 C5.96652354 1.57013777 10.82909025 4.75029782 16 8 C15.34 8.66 14.68 9.32 14 10 C10.535 8.02 10.535 8.02 7 6 C7 5.34 7 4.68 7 4 C6.05125 3.87625 5.1025 3.7525 4.125 3.625 C1 3 1 3 -1 1 C-0.67 0.67 -0.34 0.34 0 0 Z " fill="#FC9A65" transform="translate(654,235)"/>
<path d="M0 0 C0.33 0 0.66 0 1 0 C1.07476562 0.56847656 1.14953125 1.13695312 1.2265625 1.72265625 C2.27273382 7.86634859 4.23645141 11.90032004 9 16 C11.68479876 17.46425533 11.68479876 17.46425533 14 18 C14 18.66 14 19.32 14 20 C7.741839 18.39907509 4.6031232 15.54288508 1.1875 10.125 C-0.16784249 6.55830924 -0.22708206 3.78470104 0 0 Z " fill="#F59C96" transform="translate(308,365)"/>
<path d="M0 0 C0 0.66 0 1.32 0 2 C-3.86637845 3.43865245 -6.89377579 4.10805853 -11 4 C-12.34332728 4.29044914 -13.68225804 4.60955794 -15 5 C-15.33 4.34 -15.66 3.68 -16 3 C-13.70887834 2.49750857 -11.41708499 1.99807883 -9.125 1.5 C-7.84882813 1.2215625 -6.57265625 0.943125 -5.2578125 0.65625 C-2 0 -2 0 0 0 Z " fill="#FEA15C" transform="translate(465,203)"/>
<path d="M0 0 C5.23880078 0.55145271 9.97350697 1.42922093 15 3 C13.4375 4.125 13.4375 4.125 11 5 C7.5 4.1875 7.5 4.1875 4 3 C2.66869885 2.65864073 1.33641852 2.32074044 0 2 C0 1.34 0 0.68 0 0 Z " fill="#FD9F5E" transform="translate(577,207)"/>
<path d="M0 0 C2.65171248 2.37094293 4.1490052 4.83568087 5.75 8 C6.19859375 8.86625 6.6471875 9.7325 7.109375 10.625 C8 13 8 13 7 16 C5.82558465 13.89983377 4.66035988 11.79541245 3.5 9.6875 C3.16613281 9.09259766 2.83226562 8.49769531 2.48828125 7.88476562 C0.93174886 5.04171156 0 3.29339012 0 0 Z " fill="#F7746E" transform="translate(780,359)"/>
<path d="M0 0 C1.13199353 0.9080162 2.25532363 1.82683826 3.375 2.75 C4.00148438 3.26046875 4.62796875 3.7709375 5.2734375 4.296875 C7.08312318 6.08199481 8.00117455 7.67949644 9 10 C8.01 10 7.02 10 6 10 C5.6596875 9.1646875 5.6596875 9.1646875 5.3125 8.3125 C3.64103234 5.36753316 1.44723648 3.31843456 -1 1 C-0.67 0.67 -0.34 0.34 0 0 Z " fill="#FB896B" transform="translate(738,300)"/>
<path d="M0 0 C4.20573951 2.5534847 5.81765041 5.71324188 8 10 C8 10.66 8 11.32 8 12 C7.34 12 6.68 12 6 12 C4.4921875 9.8828125 4.4921875 9.8828125 2.875 7.125 C2.33617187 6.22007812 1.79734375 5.31515625 1.2421875 4.3828125 C0 2 0 2 0 0 Z " fill="#FB4688" transform="translate(252,642)"/>
<path d="M0 0 C1.27310312 0.93441535 2.543388 1.87267111 3.8125 2.8125 C4.52019531 3.33457031 5.22789062 3.85664062 5.95703125 4.39453125 C7.78531393 5.83128877 9.39896688 7.31815763 11 9 C6.16592748 8.58565093 4.10462326 6.62206046 1 3 C0.67 2.01 0.34 1.02 0 0 Z " fill="#F15EB4" transform="translate(457,671)"/>
<path d="M0 0 C4.95 0.99 4.95 0.99 10 2 C9.67 2.66 9.34 3.32 9 4 C6.03 3.67 3.06 3.34 0 3 C0 2.01 0 1.02 0 0 Z " fill="#FDA05E" transform="translate(565,204)"/>
<path d="M0 0 C1.258125 -0.04125 2.51625 -0.0825 3.8125 -0.125 C4.52019531 -0.14820313 5.22789062 -0.17140625 5.95703125 -0.1953125 C8 0 8 0 11 2 C6.99799622 3.60080151 3.95443764 2.29279692 0 1 C0 0.67 0 0.34 0 0 Z " fill="#FD9D5A" transform="translate(553,203)"/>
<path d="M0 0 C2 1 2 1 2 1 Z " fill="#F79C68" transform="translate(368,232)"/>
<path d="" fill="#4D3940" transform="translate(0,0)"/>
<path d="" fill="#F2469A" transform="translate(0,0)"/>
<path d="" fill="#F14898" transform="translate(0,0)"/>
<path d="" fill="#F34998" transform="translate(0,0)"/>
<path d="" fill="#F35595" transform="translate(0,0)"/>
<path d="" fill="#F45693" transform="translate(0,0)"/>
<path d="" fill="#F25991" transform="translate(0,0)"/>
<path d="" fill="#F65992" transform="translate(0,0)"/>
<path d="" fill="#F3608F" transform="translate(0,0)"/>
<path d="" fill="#F2638F" transform="translate(0,0)"/>
<path d="" fill="#F36691" transform="translate(0,0)"/>
<path d="" fill="#F2698E" transform="translate(0,0)"/>
<path d="" fill="#F36B8D" transform="translate(0,0)"/>
<path d="" fill="#F27780" transform="translate(0,0)"/>
<path d="" fill="#F38272" transform="translate(0,0)"/>
<path d="" fill="#F38C71" transform="translate(0,0)"/>
<path d="" fill="#F3896F" transform="translate(0,0)"/>
<path d="" fill="#F58F6E" transform="translate(0,0)"/>
<path d="" fill="#FCA35D" transform="translate(0,0)"/>
<path d="" fill="#FDA45E" transform="translate(0,0)"/>
</svg>
